Normalized EMG Linear Envelopes
nRows=32
nColumns=17

endheader
time	        VM	        VL	        RF	       GRA	        TA	   ADDLONG	   SEMIMEM	      BFLH	        GM	        GL	       TFL	   GLUTMAX	   GLUTMED	      PIRI	    OBTINT	        QF	
1.8375	  0.096012	  0.116855	  0.711178	  0.394505	  0.384409	  0.215742	  0.111506	  0.091919	  0.037291	  0.105258	  0.329378	  0.057190	  0.155917	  0.074490	  0.150764	  0.066234	
1.838	  0.096305	  0.116711	  0.712001	  0.390644	  0.381886	  0.213823	  0.110073	  0.091227	  0.036687	  0.104335	  0.328074	  0.057726	  0.156909	  0.074819	  0.151717	  0.066451	
1.8385	  0.096595	  0.116577	  0.712823	  0.386809	  0.379381	  0.211925	  0.108644	  0.090535	  0.036095	  0.103428	  0.326762	  0.058265	  0.157920	  0.075153	  0.152680	  0.066678	
1.839	  0.096883	  0.116451	  0.713645	  0.383000	  0.376894	  0.210046	  0.107218	  0.089844	  0.035516	  0.102537	  0.325443	  0.058807	  0.158951	  0.075492	  0.153651	  0.066916	
1.8395	  0.097169	  0.116335	  0.714467	  0.379218	  0.374425	  0.208188	  0.105796	  0.089154	  0.034949	  0.101662	  0.324116	  0.059353	  0.160001	  0.075835	  0.154630	  0.067166	
1.84	  0.097453	  0.116228	  0.715288	  0.375464	  0.371973	  0.206351	  0.104379	  0.088464	  0.034394	  0.100803	  0.322781	  0.059903	  0.161069	  0.076182	  0.155615	  0.067427	
1.8405	  0.097734	  0.116129	  0.716109	  0.371739	  0.369537	  0.204534	  0.102966	  0.087776	  0.033851	  0.099958	  0.321439	  0.060457	  0.162157	  0.076534	  0.156606	  0.067699	
1.841	  0.098011	  0.116039	  0.716928	  0.368042	  0.367117	  0.202737	  0.101559	  0.087088	  0.033320	  0.099127	  0.320089	  0.061014	  0.163264	  0.076890	  0.157603	  0.067983	
1.8415	  0.098286	  0.115957	  0.717747	  0.364376	  0.364713	  0.200961	  0.100157	  0.086401	  0.032801	  0.098311	  0.318733	  0.061576	  0.164390	  0.077250	  0.158605	  0.068278	
1.842	  0.098558	  0.115883	  0.718564	  0.360740	  0.362322	  0.199206	  0.098762	  0.085716	  0.032293	  0.097508	  0.317371	  0.062141	  0.165536	  0.077614	  0.159611	  0.068585	
1.8425	  0.098826	  0.115817	  0.719379	  0.357134	  0.359946	  0.197471	  0.097372	  0.085031	  0.031798	  0.096717	  0.316002	  0.062711	  0.166700	  0.077982	  0.160620	  0.068904	
1.843	  0.099090	  0.115759	  0.720194	  0.353560	  0.357583	  0.195757	  0.095989	  0.084348	  0.031314	  0.095939	  0.314629	  0.063285	  0.167884	  0.078355	  0.161633	  0.069235	
1.8435	  0.099350	  0.115708	  0.721008	  0.350018	  0.355233	  0.194064	  0.094613	  0.083667	  0.030841	  0.095173	  0.313250	  0.063863	  0.169088	  0.078731	  0.162650	  0.069578	
1.844	  0.099607	  0.115664	  0.721821	  0.346507	  0.352896	  0.192393	  0.093244	  0.082986	  0.030380	  0.094417	  0.311867	  0.064445	  0.170311	  0.079111	  0.163669	  0.069934	
1.8445	  0.099858	  0.115626	  0.722634	  0.343028	  0.350571	  0.190742	  0.091882	  0.082307	  0.029931	  0.093672	  0.310480	  0.065031	  0.171554	  0.079495	  0.164691	  0.070302	
1.845	  0.100106	  0.115595	  0.723448	  0.339581	  0.348259	  0.189112	  0.090528	  0.081630	  0.029493	  0.092938	  0.309091	  0.065622	  0.172816	  0.079884	  0.165717	  0.070683	
1.8455	  0.100348	  0.115570	  0.724262	  0.336165	  0.345961	  0.187504	  0.089181	  0.080953	  0.029066	  0.092212	  0.307698	  0.066216	  0.174097	  0.080276	  0.166745	  0.071077	
1.846	  0.100587	  0.115550	  0.725077	  0.332782	  0.343678	  0.185916	  0.087843	  0.080278	  0.028649	  0.091495	  0.306303	  0.066816	  0.175398	  0.080673	  0.167775	  0.071484	
1.8465	  0.100820	  0.115537	  0.725893	  0.329430	  0.341408	  0.184349	  0.086513	  0.079605	  0.028244	  0.090786	  0.304906	  0.067419	  0.176717	  0.081073	  0.168808	  0.071904	
1.847	  0.101048	  0.115528	  0.726710	  0.326110	  0.339154	  0.182803	  0.085191	  0.078933	  0.027850	  0.090085	  0.303507	  0.068027	  0.178056	  0.081477	  0.169844	  0.072337	
1.8475	  0.101272	  0.115525	  0.727529	  0.322822	  0.336916	  0.181277	  0.083878	  0.078262	  0.027466	  0.089390	  0.302107	  0.068638	  0.179414	  0.081886	  0.170881	  0.072784	
1.848	  0.101490	  0.115526	  0.728349	  0.319565	  0.334695	  0.179771	  0.082573	  0.077592	  0.027093	  0.088702	  0.300706	  0.069255	  0.180790	  0.082297	  0.171920	  0.073245	
1.8485	  0.101704	  0.115532	  0.729170	  0.316339	  0.332493	  0.178285	  0.081278	  0.076924	  0.026730	  0.088019	  0.299305	  0.069875	  0.182184	  0.082713	  0.172962	  0.073719	
1.849	  0.101913	  0.115543	  0.729993	  0.313144	  0.330310	  0.176820	  0.079992	  0.076257	  0.026377	  0.087340	  0.297904	  0.070499	  0.183597	  0.083132	  0.174005	  0.074208	
1.8495	  0.102117	  0.115557	  0.730820	  0.309981	  0.328149	  0.175373	  0.078715	  0.075592	  0.026034	  0.086666	  0.296503	  0.071127	  0.185028	  0.083555	  0.175050	  0.074710	
1.85	  0.102316	  0.115576	  0.731650	  0.306848	  0.326010	  0.173946	  0.077447	  0.074929	  0.025701	  0.085996	  0.295102	  0.071759	  0.186477	  0.083981	  0.176096	  0.075226	
1.8505	  0.102510	  0.115597	  0.732484	  0.303745	  0.323894	  0.172537	  0.076189	  0.074267	  0.025378	  0.085328	  0.293703	  0.072394	  0.187944	  0.084411	  0.177145	  0.075756	
1.851	  0.102700	  0.115622	  0.733324	  0.300672	  0.321804	  0.171147	  0.074940	  0.073606	  0.025064	  0.084663	  0.292306	  0.073034	  0.189428	  0.084844	  0.178196	  0.076301	
1.8515	  0.102884	  0.115650	  0.734170	  0.297630	  0.319741	  0.169776	  0.073701	  0.072947	  0.024760	  0.084000	  0.290910	  0.073677	  0.190930	  0.085280	  0.179249	  0.076859	
1.852	  0.103063	  0.115681	  0.735023	  0.294617	  0.317705	  0.168422	  0.072472	  0.072290	  0.024464	  0.083338	  0.289518	  0.074323	  0.192450	  0.085720	  0.180305	  0.077432	
1.8525	  0.103237	  0.115714	  0.735884	  0.291633	  0.315697	  0.167086	  0.071253	  0.071634	  0.024178	  0.082678	  0.288130	  0.074973	  0.193987	  0.086163	  0.181365	  0.078019	
1.853	  0.103406	  0.115750	  0.736751	  0.288680	  0.313719	  0.165768	  0.070044	  0.070980	  0.023901	  0.082018	  0.286746	  0.075627	  0.195543	  0.086611	  0.182427	  0.078621	
